<?xml version="1.0" encoding="UTF-8" standalone="no"?><svg xmlns="http://www.w3.org/2000/svg" xmlns:xlink="http://www.w3.org/1999/xlink" contentScriptType="application/ecmascript" contentStyleType="text/css" height="294px" preserveAspectRatio="none" style="width:999px;height:294px;" version="1.1" viewBox="0 0 999 294" width="999px" zoomAndPan="magnify"><defs><filter height="300%" id="fay3wgnrvicmf" width="300%" x="-1" y="-1"><feGaussianBlur result="blurOut" stdDeviation="2.0"/><feColorMatrix in="blurOut" result="blurOut2" type="matrix" values="0 0 0 0 0 0 0 0 0 0 0 0 0 0 0 0 0 0 .4 0"/><feOffset dx="4.0" dy="4.0" in="blurOut2" result="blurOut3"/><feBlend in="SourceGraphic" in2="blurOut3" mode="normal"/></filter></defs><g><!--MD5=[fca8240bc233c06068545f9c8883ae88]
cluster Frontend--><rect fill="#FFFFFF" filter="url(#fay3wgnrvicmf)" height="178" style="stroke: #000000; stroke-width: 1.5;" width="180" x="314" y="85"/><text fill="#000000" font-family="sans-serif" font-size="14" font-weight="bold" lengthAdjust="spacingAndGlyphs" textLength="72" x="368" y="99.9951">Frontend</text><!--MD5=[56958750488fff09e2ce92554dc9497d]
cluster External Systems--><rect fill="#FFFFFF" filter="url(#fay3wgnrvicmf)" height="259" style="stroke: #000000; stroke-width: 1.5;" width="203" x="785" y="24"/><text fill="#000000" font-family="sans-serif" font-size="14" font-weight="bold" lengthAdjust="spacingAndGlyphs" textLength="136" x="818.5" y="38.9951">External Systems</text><!--MD5=[e0ce3f04a84c4e9839cbbe02ae2dfcd5]
entity pos--><rect fill="#F8F8F8" filter="url(#fay3wgnrvicmf)" height="46.2969" style="stroke: #383838; stroke-width: 1.5;" width="148" x="330" y="120"/><rect fill="#F8F8F8" height="10" style="stroke: #383838; stroke-width: 1.5;" width="15" x="458" y="125"/><rect fill="#F8F8F8" height="2" style="stroke: #383838; stroke-width: 1.5;" width="4" x="456" y="127"/><rect fill="#F8F8F8" height="2" style="stroke: #383838; stroke-width: 1.5;" width="4" x="456" y="131"/><text fill="#000000" font-family="sans-serif" font-size="14" lengthAdjust="spacingAndGlyphs" textLength="108" x="345" y="152.9951">POS Application</text><!--MD5=[08af8945a84acfe1eabc0963aa87c412]
entity web--><rect fill="#F8F8F8" filter="url(#fay3wgnrvicmf)" height="46.2969" style="stroke: #383838; stroke-width: 1.5;" width="107" x="350.5" y="201"/><rect fill="#F8F8F8" height="10" style="stroke: #383838; stroke-width: 1.5;" width="15" x="437.5" y="206"/><rect fill="#F8F8F8" height="2" style="stroke: #383838; stroke-width: 1.5;" width="4" x="435.5" y="208"/><rect fill="#F8F8F8" height="2" style="stroke: #383838; stroke-width: 1.5;" width="4" x="435.5" y="212"/><text fill="#000000" font-family="sans-serif" font-size="14" lengthAdjust="spacingAndGlyphs" textLength="67" x="365.5" y="233.9951">WebShop</text><!--MD5=[b9b1bc63773a118685e9b5feeb56bf85]
entity payment--><rect fill="#F8F8F8" filter="url(#fay3wgnrvicmf)" height="46.2969" style="stroke: #383838; stroke-width: 1.5;" width="156" x="808.5" y="59"/><rect fill="#F8F8F8" height="10" style="stroke: #383838; stroke-width: 1.5;" width="15" x="944.5" y="64"/><rect fill="#F8F8F8" height="2" style="stroke: #383838; stroke-width: 1.5;" width="4" x="942.5" y="66"/><rect fill="#F8F8F8" height="2" style="stroke: #383838; stroke-width: 1.5;" width="4" x="942.5" y="70"/><text fill="#000000" font-family="sans-serif" font-size="14" lengthAdjust="spacingAndGlyphs" textLength="116" x="823.5" y="91.9951">PaymentProvider</text><!--MD5=[ededa27521834249778f3c027834d0e9]
entity production--><rect fill="#F8F8F8" filter="url(#fay3wgnrvicmf)" height="46.2969" style="stroke: #383838; stroke-width: 1.5;" width="171" x="801" y="140"/><rect fill="#F8F8F8" height="10" style="stroke: #383838; stroke-width: 1.5;" width="15" x="952" y="145"/><rect fill="#F8F8F8" height="2" style="stroke: #383838; stroke-width: 1.5;" width="4" x="950" y="147"/><rect fill="#F8F8F8" height="2" style="stroke: #383838; stroke-width: 1.5;" width="4" x="950" y="151"/><text fill="#000000" font-family="sans-serif" font-size="14" lengthAdjust="spacingAndGlyphs" textLength="131" x="816" y="172.9951">ProductionProvider</text><!--MD5=[41af07caac6f22b95af08b7577e9a574]
entity billing--><rect fill="#F8F8F8" filter="url(#fay3wgnrvicmf)" height="46.2969" style="stroke: #383838; stroke-width: 1.5;" width="136" x="818.5" y="221"/><rect fill="#F8F8F8" height="10" style="stroke: #383838; stroke-width: 1.5;" width="15" x="934.5" y="226"/><rect fill="#F8F8F8" height="2" style="stroke: #383838; stroke-width: 1.5;" width="4" x="932.5" y="228"/><rect fill="#F8F8F8" height="2" style="stroke: #383838; stroke-width: 1.5;" width="4" x="932.5" y="232"/><text fill="#000000" font-family="sans-serif" font-size="14" lengthAdjust="spacingAndGlyphs" textLength="96" x="833.5" y="253.9951">BillingProvider</text><!--MD5=[8fcc7e54f991ed1933411a93cea2bf42]
entity facade--><rect fill="#F8F8F8" filter="url(#fay3wgnrvicmf)" height="46.2969" style="stroke: #383838; stroke-width: 1.5;" width="203" x="538" y="140"/><rect fill="#F8F8F8" height="10" style="stroke: #383838; stroke-width: 1.5;" width="15" x="721" y="145"/><rect fill="#F8F8F8" height="2" style="stroke: #383838; stroke-width: 1.5;" width="4" x="719" y="147"/><rect fill="#F8F8F8" height="2" style="stroke: #383838; stroke-width: 1.5;" width="4" x="719" y="151"/><text fill="#000000" font-family="sans-serif" font-size="14" lengthAdjust="spacingAndGlyphs" textLength="163" x="553" y="172.9951">OrderFulfillmentDirector</text><!--MD5=[2b2d5ad518bf6746de4ffeb5be0566d4]
entity manager--><ellipse cx="56.5" cy="152" fill="#F8F8F8" filter="url(#fay3wgnrvicmf)" rx="8" ry="8" style="stroke: #383838; stroke-width: 1.5;"/><path d="M56.5,160 L56.5,187 M43.5,168 L69.5,168 M56.5,187 L43.5,202 M56.5,187 L69.5,202 " fill="none" filter="url(#fay3wgnrvicmf)" style="stroke: #383838; stroke-width: 1.5;"/><text fill="#000000" font-family="sans-serif" font-size="14" lengthAdjust="spacingAndGlyphs" textLength="101" x="6" y="220.4951">Store Manager</text><!--MD5=[92848cbaf65985a669855153c5362c37]
entity customer--><ellipse cx="218.5" cy="199" fill="#F8F8F8" filter="url(#fay3wgnrvicmf)" rx="8" ry="8" style="stroke: #383838; stroke-width: 1.5;"/><path d="M218.5,207 L218.5,234 M205.5,215 L231.5,215 M218.5,234 L205.5,249 M218.5,234 L231.5,249 " fill="none" filter="url(#fay3wgnrvicmf)" style="stroke: #383838; stroke-width: 1.5;"/><text fill="#000000" font-family="sans-serif" font-size="14" lengthAdjust="spacingAndGlyphs" textLength="103" x="167" y="267.4951">Web Customer</text><!--MD5=[303b1dca54a0cca3c417bcbb24ac66a2]
link manager to pos--><path d="M107.002,177.269 C163.83,170.69 257.789,159.812 324.595,152.077 " fill="none" id="manager-&gt;pos" style="stroke: #383838; stroke-width: 1.0;"/><polygon fill="#383838" points="329.76,151.479,320.3601,148.5391,324.7931,152.0533,321.279,156.4862,329.76,151.479" style="stroke: #383838; stroke-width: 1.0;"/><!--MD5=[dcc73331165d976a7044611a647dd358]
link pos to facade--><path d="M478.24,149.273 C495.478,150.75 514.192,152.353 532.547,153.925 " fill="none" id="pos-&gt;facade" style="stroke: #383838; stroke-width: 1.0;"/><polygon fill="#383838" points="537.713,154.367,529.0876,149.6127,532.7313,153.9398,528.4042,157.5835,537.713,154.367" style="stroke: #383838; stroke-width: 1.0;"/><!--MD5=[ec527e50ac00c5e2042d24bb9e9c155f]
link manager to customer--><!--MD5=[a53a7f69fc5fe6f3f67e08e04be4acc2]
link customer to web--><path d="M270.128,228.3446 C293.402,227.5836 321.128,226.677 345.216,225.8894 " fill="none" id="customer-&gt;web" style="stroke: #383838; stroke-width: 1.0;"/><polygon fill="#383838" points="350.298,225.7232,341.1725,222.0185,345.3007,225.8861,341.4331,230.0142,350.298,225.7232" style="stroke: #383838; stroke-width: 1.0;"/><!--MD5=[dcf5a47bb6794a435621e071b6cec833]
link web to facade--><path d="M457.693,210.2343 C483.505,203.4912 515.367,195.167 545.119,187.395 " fill="none" id="web-&gt;facade" style="stroke: #383838; stroke-width: 1.0;"/><polygon fill="#383838" points="550.259,186.052,540.54,184.4579,545.4215,187.3164,542.563,192.1979,550.259,186.052" style="stroke: #383838; stroke-width: 1.0;"/><!--MD5=[63de02ae813a80cdd02933b569d5190f]
link facade to payment--><path d="M710.379,139.897 C741.66,129.555 778.594,117.345 810.459,106.81 " fill="none" id="facade-&gt;payment" style="stroke: #383838; stroke-width: 1.0;"/><polygon fill="#383838" points="815.528,105.134,805.7272,104.1623,810.7809,106.704,808.2392,111.7577,815.528,105.134" style="stroke: #383838; stroke-width: 1.0;"/><!--MD5=[253072aacbe6e6cc09829daa9c1d4a8f]
link facade to production--><path d="M741.211,163 C759.153,163 777.738,163 795.361,163 " fill="none" id="facade-&gt;production" style="stroke: #383838; stroke-width: 1.0;"/><polygon fill="#383838" points="800.798,163,791.798,159,795.798,163,791.798,167,800.798,163" style="stroke: #383838; stroke-width: 1.0;"/><!--MD5=[c4fae75ac672e769f831d9ac06e34da1]
link facade to billing--><path d="M710.379,186.103 C742.733,196.799 781.133,209.4948 813.718,220.2679 " fill="none" id="facade-&gt;billing" style="stroke: #383838; stroke-width: 1.0;"/><polygon fill="#383838" points="818.482,221.843,811.1931,215.2194,813.7349,220.2731,808.6812,222.8148,818.482,221.843" style="stroke: #383838; stroke-width: 1.0;"/><!--MD5=[304abd8a2d2ac0c10cc07eed35331c5a]
@startuml


left to right direction
skinparam componentStyle uml2
skinparam monochrome true

rectangle "Frontend" {
	[POS Application] as pos
	[WebShop] as web
}

[OrderFulfillmentDirector] as facade

actor "Store Manager" as manager
manager -> pos
pos -down-> facade

actor "Web Customer" as customer
manager -[hidden]-> customer
customer -down-> web
web -down-> facade

rectangle "External Systems" {
	[PaymentProvider] as payment
	[ProductionProvider] as production
	[BillingProvider] as billing

}

facade -down-> payment
facade -down-> production
facade -down-> billing
@enduml

PlantUML version 1.2020.03beta11(Unknown compile time)
(GPL source distribution)
Java Runtime: Java(TM) SE Runtime Environment
JVM: Java HotSpot(TM) 64-Bit Server VM
Java Version: 1.7.0_25-b15
Operating System: Linux
Default Encoding: UTF-8
Language: en
Country: US
--></g></svg>