<?xml version="1.0" encoding="UTF-8" standalone="no"?><svg xmlns="http://www.w3.org/2000/svg" xmlns:xlink="http://www.w3.org/1999/xlink" contentScriptType="application/ecmascript" contentStyleType="text/css" height="227px" preserveAspectRatio="none" style="width:822px;height:227px;" version="1.1" viewBox="0 0 822 227" width="822px" zoomAndPan="magnify"><defs><filter height="300%" id="fu4sl4afe84c1" width="300%" x="-1" y="-1"><feGaussianBlur result="blurOut" stdDeviation="2.0"/><feColorMatrix in="blurOut" result="blurOut2" type="matrix" values="0 0 0 0 0 0 0 0 0 0 0 0 0 0 0 0 0 0 .4 0"/><feOffset dx="4.0" dy="4.0" in="blurOut2" result="blurOut3"/><feBlend in="SourceGraphic" in2="blurOut3" mode="normal"/></filter></defs><g><!--MD5=[e0ce3f04a84c4e9839cbbe02ae2dfcd5]
entity pos--><rect fill="#F8F8F8" filter="url(#fu4sl4afe84c1)" height="46.2969" style="stroke: #383838; stroke-width: 1.5;" width="148" x="169" y="134"/><rect fill="#F8F8F8" height="10" style="stroke: #383838; stroke-width: 1.5;" width="15" x="297" y="139"/><rect fill="#F8F8F8" height="2" style="stroke: #383838; stroke-width: 1.5;" width="4" x="295" y="141"/><rect fill="#F8F8F8" height="2" style="stroke: #383838; stroke-width: 1.5;" width="4" x="295" y="145"/><text fill="#000000" font-family="sans-serif" font-size="14" lengthAdjust="spacingAndGlyphs" textLength="108" x="184" y="166.9951">POS Application</text><!--MD5=[08af8945a84acfe1eabc0963aa87c412]
entity web--><rect fill="#F8F8F8" filter="url(#fu4sl4afe84c1)" height="46.2969" style="stroke: #383838; stroke-width: 1.5;" width="107" x="189.5" y="44"/><rect fill="#F8F8F8" height="10" style="stroke: #383838; stroke-width: 1.5;" width="15" x="276.5" y="49"/><rect fill="#F8F8F8" height="2" style="stroke: #383838; stroke-width: 1.5;" width="4" x="274.5" y="51"/><rect fill="#F8F8F8" height="2" style="stroke: #383838; stroke-width: 1.5;" width="4" x="274.5" y="55"/><text fill="#000000" font-family="sans-serif" font-size="14" lengthAdjust="spacingAndGlyphs" textLength="67" x="204.5" y="76.9951">WebShop</text><!--MD5=[8fcc7e54f991ed1933411a93cea2bf42]
entity facade--><rect fill="#F8F8F8" filter="url(#fu4sl4afe84c1)" height="46.2969" style="stroke: #383838; stroke-width: 1.5;" width="203" x="377" y="89"/><rect fill="#F8F8F8" height="10" style="stroke: #383838; stroke-width: 1.5;" width="15" x="560" y="94"/><rect fill="#F8F8F8" height="2" style="stroke: #383838; stroke-width: 1.5;" width="4" x="558" y="96"/><rect fill="#F8F8F8" height="2" style="stroke: #383838; stroke-width: 1.5;" width="4" x="558" y="100"/><text fill="#000000" font-family="sans-serif" font-size="14" lengthAdjust="spacingAndGlyphs" textLength="163" x="392" y="121.9951">OrderFulfillmentDirector</text><!--MD5=[92848cbaf65985a669855153c5362c37]
entity customer--><ellipse cx="57.5" cy="27" fill="#F8F8F8" filter="url(#fu4sl4afe84c1)" rx="8" ry="8" style="stroke: #383838; stroke-width: 1.5;"/><path d="M57.5,35 L57.5,62 M44.5,43 L70.5,43 M57.5,62 L44.5,77 M57.5,62 L70.5,77 " fill="none" filter="url(#fu4sl4afe84c1)" style="stroke: #383838; stroke-width: 1.5;"/><text fill="#000000" font-family="sans-serif" font-size="14" lengthAdjust="spacingAndGlyphs" textLength="103" x="6" y="95.4951">Web Customer</text><!--MD5=[2b2d5ad518bf6746de4ffeb5be0566d4]
entity manager--><ellipse cx="57.5" cy="143" fill="#F8F8F8" filter="url(#fu4sl4afe84c1)" rx="8" ry="8" style="stroke: #383838; stroke-width: 1.5;"/><path d="M57.5,151 L57.5,178 M44.5,159 L70.5,159 M57.5,178 L44.5,193 M57.5,178 L70.5,193 " fill="none" filter="url(#fu4sl4afe84c1)" style="stroke: #383838; stroke-width: 1.5;"/><text fill="#000000" font-family="sans-serif" font-size="14" lengthAdjust="spacingAndGlyphs" textLength="101" x="7" y="211.4951">Store Manager</text><!--MD5=[b9b1bc63773a118685e9b5feeb56bf85]
entity payment--><rect fill="#F8F8F8" filter="url(#fu4sl4afe84c1)" height="46.2969" style="stroke: #383838; stroke-width: 1.5;" width="156" x="647.5" y="8"/><rect fill="#F8F8F8" height="10" style="stroke: #383838; stroke-width: 1.5;" width="15" x="783.5" y="13"/><rect fill="#F8F8F8" height="2" style="stroke: #383838; stroke-width: 1.5;" width="4" x="781.5" y="15"/><rect fill="#F8F8F8" height="2" style="stroke: #383838; stroke-width: 1.5;" width="4" x="781.5" y="19"/><text fill="#000000" font-family="sans-serif" font-size="14" lengthAdjust="spacingAndGlyphs" textLength="116" x="662.5" y="40.9951">PaymentProvider</text><!--MD5=[ededa27521834249778f3c027834d0e9]
entity production--><rect fill="#F8F8F8" filter="url(#fu4sl4afe84c1)" height="46.2969" style="stroke: #383838; stroke-width: 1.5;" width="171" x="640" y="89"/><rect fill="#F8F8F8" height="10" style="stroke: #383838; stroke-width: 1.5;" width="15" x="791" y="94"/><rect fill="#F8F8F8" height="2" style="stroke: #383838; stroke-width: 1.5;" width="4" x="789" y="96"/><rect fill="#F8F8F8" height="2" style="stroke: #383838; stroke-width: 1.5;" width="4" x="789" y="100"/><text fill="#000000" font-family="sans-serif" font-size="14" lengthAdjust="spacingAndGlyphs" textLength="131" x="655" y="121.9951">ProductionProvider</text><!--MD5=[41af07caac6f22b95af08b7577e9a574]
entity billing--><rect fill="#F8F8F8" filter="url(#fu4sl4afe84c1)" height="46.2969" style="stroke: #383838; stroke-width: 1.5;" width="136" x="657.5" y="170"/><rect fill="#F8F8F8" height="10" style="stroke: #383838; stroke-width: 1.5;" width="15" x="773.5" y="175"/><rect fill="#F8F8F8" height="2" style="stroke: #383838; stroke-width: 1.5;" width="4" x="771.5" y="177"/><rect fill="#F8F8F8" height="2" style="stroke: #383838; stroke-width: 1.5;" width="4" x="771.5" y="181"/><text fill="#000000" font-family="sans-serif" font-size="14" lengthAdjust="spacingAndGlyphs" textLength="96" x="672.5" y="202.9951">BillingProvider</text><!--MD5=[a53a7f69fc5fe6f3f67e08e04be4acc2]
link customer to web--><path d="M109.128,60.483 C132.402,61.625 160.128,62.984 184.216,64.166 " fill="none" id="customer-&gt;web" style="stroke: #383838; stroke-width: 1.0;"/><polygon fill="#383838" points="189.298,64.415,180.5054,59.9776,184.304,64.1693,180.1123,67.9679,189.298,64.415" style="stroke: #383838; stroke-width: 1.0;"/><!--MD5=[dcf5a47bb6794a435621e071b6cec833]
link web to facade--><path d="M296.693,77.155 C318.887,81.432 345.554,86.571 371.506,91.573 " fill="none" id="web-&gt;facade" style="stroke: #383838; stroke-width: 1.0;"/><polygon fill="#383838" points="376.685,92.571,368.604,86.941,371.7752,91.6253,367.0909,94.7966,376.685,92.571" style="stroke: #383838; stroke-width: 1.0;"/><!--MD5=[303b1dca54a0cca3c417bcbb24ac66a2]
link manager to pos--><path d="M108.158,169.3996 C125.233,167.8176 144.792,166.0056 163.588,164.2643 " fill="none" id="manager-&gt;pos" style="stroke: #383838; stroke-width: 1.0;"/><polygon fill="#383838" points="168.866,163.7753,159.5353,160.6229,163.8873,164.2367,160.2735,168.5888,168.866,163.7753" style="stroke: #383838; stroke-width: 1.0;"/><!--MD5=[dcc73331165d976a7044611a647dd358]
link pos to facade--><path d="M317.24,142.8852 C334.478,139.5632 353.192,135.9566 371.547,132.4192 " fill="none" id="pos-&gt;facade" style="stroke: #383838; stroke-width: 1.0;"/><polygon fill="#383838" points="376.713,131.4236,367.1182,129.2008,371.8035,132.3707,368.6336,137.056,376.713,131.4236" style="stroke: #383838; stroke-width: 1.0;"/><!--MD5=[63de02ae813a80cdd02933b569d5190f]
link facade to payment--><path d="M549.379,88.897 C580.66,78.555 617.594,66.345 649.459,55.81 " fill="none" id="facade-&gt;payment" style="stroke: #383838; stroke-width: 1.0;"/><polygon fill="#383838" points="654.528,54.134,644.7272,53.1623,649.7809,55.704,647.2392,60.7577,654.528,54.134" style="stroke: #383838; stroke-width: 1.0;"/><!--MD5=[253072aacbe6e6cc09829daa9c1d4a8f]
link facade to production--><path d="M580.211,112 C598.153,112 616.738,112 634.361,112 " fill="none" id="facade-&gt;production" style="stroke: #383838; stroke-width: 1.0;"/><polygon fill="#383838" points="639.798,112,630.798,108,634.798,112,630.798,116,639.798,112" style="stroke: #383838; stroke-width: 1.0;"/><!--MD5=[c4fae75ac672e769f831d9ac06e34da1]
link facade to billing--><path d="M549.379,135.1029 C581.733,145.7994 620.133,158.4948 652.718,169.2679 " fill="none" id="facade-&gt;billing" style="stroke: #383838; stroke-width: 1.0;"/><polygon fill="#383838" points="657.482,170.843,650.1931,164.2194,652.7349,169.2731,647.6812,171.8148,657.482,170.843" style="stroke: #383838; stroke-width: 1.0;"/><!--MD5=[df99a04ed8aba9fef8be249ec67e1aab]
@startuml


left to right direction
skinparam componentStyle uml2
skinparam monochrome true

[POS Application] as pos
[WebShop] as web

[OrderFulfillmentDirector] as facade

actor "Web Customer" as customer
customer -down-> web
web -down-> facade

actor "Store Manager" as manager
manager -down-> pos
pos -down-> facade

[PaymentProvider] as payment
[ProductionProvider] as production
[BillingProvider] as billing

facade -down-> payment
facade -down-> production
facade -down-> billing
@enduml

PlantUML version 1.2020.03beta11(Unknown compile time)
(GPL source distribution)
Java Runtime: Java(TM) SE Runtime Environment
JVM: Java HotSpot(TM) 64-Bit Server VM
Java Version: 1.7.0_25-b15
Operating System: Linux
Default Encoding: UTF-8
Language: en
Country: US
--></g></svg>